<mxfile host="app.diagrams.net" agent="Mozilla/5.0 (Windows NT 10.0; Win64; x64) AppleWebKit/537.36 (KHTML, like Gecko) Chrome/131.0.0.0 Safari/537.36" version="25.0.3">
  <diagram name="Page-1" id="8mK00jtbwxIo0HdY4z8a">
    <mxGraphModel dx="1216" dy="580" grid="1" gridSize="10" guides="1" tooltips="1" connect="1" arrows="1" fold="1" page="1" pageScale="1" pageWidth="850" pageHeight="1100" math="0" shadow="0">
      <root>
        <mxCell id="0" />
        <mxCell id="1" parent="0" />
        <mxCell id="v3hVi9f_t8TOyD8l7h1l-67" value="" style="edgeStyle=orthogonalEdgeStyle;rounded=0;orthogonalLoop=1;jettySize=auto;html=1;" parent="1" source="v3hVi9f_t8TOyD8l7h1l-1" target="v3hVi9f_t8TOyD8l7h1l-7" edge="1">
          <mxGeometry relative="1" as="geometry" />
        </mxCell>
        <mxCell id="v3hVi9f_t8TOyD8l7h1l-68" value="" style="edgeStyle=orthogonalEdgeStyle;rounded=0;orthogonalLoop=1;jettySize=auto;html=1;" parent="1" source="v3hVi9f_t8TOyD8l7h1l-1" target="v3hVi9f_t8TOyD8l7h1l-9" edge="1">
          <mxGeometry relative="1" as="geometry" />
        </mxCell>
        <mxCell id="v3hVi9f_t8TOyD8l7h1l-69" value="" style="edgeStyle=orthogonalEdgeStyle;rounded=0;orthogonalLoop=1;jettySize=auto;html=1;" parent="1" source="v3hVi9f_t8TOyD8l7h1l-1" target="v3hVi9f_t8TOyD8l7h1l-12" edge="1">
          <mxGeometry relative="1" as="geometry" />
        </mxCell>
        <mxCell id="v3hVi9f_t8TOyD8l7h1l-1" value="Siswa" style="rounded=0;whiteSpace=wrap;html=1;" parent="1" vertex="1">
          <mxGeometry x="150" y="115" width="90" height="60" as="geometry" />
        </mxCell>
        <mxCell id="v3hVi9f_t8TOyD8l7h1l-54" value="" style="edgeStyle=orthogonalEdgeStyle;rounded=0;orthogonalLoop=1;jettySize=auto;html=1;" parent="1" source="v3hVi9f_t8TOyD8l7h1l-2" edge="1">
          <mxGeometry relative="1" as="geometry">
            <mxPoint x="351" y="490" as="targetPoint" />
            <Array as="points">
              <mxPoint x="420" y="490" />
              <mxPoint x="420" y="490" />
            </Array>
          </mxGeometry>
        </mxCell>
        <mxCell id="v3hVi9f_t8TOyD8l7h1l-80" value="" style="edgeStyle=orthogonalEdgeStyle;rounded=0;orthogonalLoop=1;jettySize=auto;html=1;" parent="1" source="v3hVi9f_t8TOyD8l7h1l-2" target="v3hVi9f_t8TOyD8l7h1l-18" edge="1">
          <mxGeometry relative="1" as="geometry" />
        </mxCell>
        <mxCell id="v3hVi9f_t8TOyD8l7h1l-2" value="Calon Siswa" style="rounded=0;whiteSpace=wrap;html=1;" parent="1" vertex="1">
          <mxGeometry x="415" y="470" width="90" height="60" as="geometry" />
        </mxCell>
        <mxCell id="v3hVi9f_t8TOyD8l7h1l-77" value="" style="edgeStyle=orthogonalEdgeStyle;rounded=0;orthogonalLoop=1;jettySize=auto;html=1;" parent="1" source="v3hVi9f_t8TOyD8l7h1l-3" target="v3hVi9f_t8TOyD8l7h1l-33" edge="1">
          <mxGeometry relative="1" as="geometry" />
        </mxCell>
        <mxCell id="v3hVi9f_t8TOyD8l7h1l-78" value="" style="edgeStyle=orthogonalEdgeStyle;rounded=0;orthogonalLoop=1;jettySize=auto;html=1;" parent="1" source="v3hVi9f_t8TOyD8l7h1l-3" target="v3hVi9f_t8TOyD8l7h1l-32" edge="1">
          <mxGeometry relative="1" as="geometry" />
        </mxCell>
        <mxCell id="v3hVi9f_t8TOyD8l7h1l-79" value="" style="edgeStyle=orthogonalEdgeStyle;rounded=0;orthogonalLoop=1;jettySize=auto;html=1;" parent="1" source="v3hVi9f_t8TOyD8l7h1l-3" target="v3hVi9f_t8TOyD8l7h1l-34" edge="1">
          <mxGeometry relative="1" as="geometry" />
        </mxCell>
        <mxCell id="v3hVi9f_t8TOyD8l7h1l-3" value="Manajer" style="rounded=0;whiteSpace=wrap;html=1;" parent="1" vertex="1">
          <mxGeometry x="670" y="120" width="90" height="60" as="geometry" />
        </mxCell>
        <mxCell id="v3hVi9f_t8TOyD8l7h1l-64" value="" style="edgeStyle=orthogonalEdgeStyle;rounded=0;orthogonalLoop=1;jettySize=auto;html=1;" parent="1" source="v3hVi9f_t8TOyD8l7h1l-4" target="v3hVi9f_t8TOyD8l7h1l-21" edge="1">
          <mxGeometry relative="1" as="geometry" />
        </mxCell>
        <mxCell id="v3hVi9f_t8TOyD8l7h1l-65" value="" style="edgeStyle=orthogonalEdgeStyle;rounded=0;orthogonalLoop=1;jettySize=auto;html=1;" parent="1" source="v3hVi9f_t8TOyD8l7h1l-4" target="v3hVi9f_t8TOyD8l7h1l-22" edge="1">
          <mxGeometry relative="1" as="geometry" />
        </mxCell>
        <mxCell id="v3hVi9f_t8TOyD8l7h1l-66" value="" style="edgeStyle=orthogonalEdgeStyle;rounded=0;orthogonalLoop=1;jettySize=auto;html=1;" parent="1" source="v3hVi9f_t8TOyD8l7h1l-4" target="v3hVi9f_t8TOyD8l7h1l-20" edge="1">
          <mxGeometry relative="1" as="geometry" />
        </mxCell>
        <mxCell id="v3hVi9f_t8TOyD8l7h1l-4" value="Petugas" style="rounded=0;whiteSpace=wrap;html=1;" parent="1" vertex="1">
          <mxGeometry x="130" y="720" width="90" height="60" as="geometry" />
        </mxCell>
        <mxCell id="v3hVi9f_t8TOyD8l7h1l-56" value="" style="edgeStyle=orthogonalEdgeStyle;rounded=0;orthogonalLoop=1;jettySize=auto;html=1;exitX=0.5;exitY=0;exitDx=0;exitDy=0;entryX=0.44;entryY=1.008;entryDx=0;entryDy=0;entryPerimeter=0;" parent="1" source="v3hVi9f_t8TOyD8l7h1l-5" target="v3hVi9f_t8TOyD8l7h1l-36" edge="1">
          <mxGeometry relative="1" as="geometry" />
        </mxCell>
        <mxCell id="v3hVi9f_t8TOyD8l7h1l-58" value="" style="edgeStyle=orthogonalEdgeStyle;rounded=0;orthogonalLoop=1;jettySize=auto;html=1;exitX=0.99;exitY=0.567;exitDx=0;exitDy=0;exitPerimeter=0;" parent="1" source="v3hVi9f_t8TOyD8l7h1l-5" target="v3hVi9f_t8TOyD8l7h1l-35" edge="1">
          <mxGeometry relative="1" as="geometry" />
        </mxCell>
        <mxCell id="v3hVi9f_t8TOyD8l7h1l-61" value="" style="edgeStyle=orthogonalEdgeStyle;rounded=0;orthogonalLoop=1;jettySize=auto;html=1;" parent="1" source="v3hVi9f_t8TOyD8l7h1l-5" target="v3hVi9f_t8TOyD8l7h1l-38" edge="1">
          <mxGeometry relative="1" as="geometry" />
        </mxCell>
        <mxCell id="v3hVi9f_t8TOyD8l7h1l-5" value="Pembayaran" style="rounded=0;whiteSpace=wrap;html=1;" parent="1" vertex="1">
          <mxGeometry x="617.5" y="770" width="90" height="60" as="geometry" />
        </mxCell>
        <mxCell id="v3hVi9f_t8TOyD8l7h1l-6" value="id_siswa" style="ellipse;whiteSpace=wrap;html=1;" parent="1" vertex="1">
          <mxGeometry x="70" y="30" width="70" height="50" as="geometry" />
        </mxCell>
        <mxCell id="v3hVi9f_t8TOyD8l7h1l-7" value="nama" style="ellipse;whiteSpace=wrap;html=1;" parent="1" vertex="1">
          <mxGeometry x="160" y="30" width="70" height="50" as="geometry" />
        </mxCell>
        <mxCell id="v3hVi9f_t8TOyD8l7h1l-8" value="data_diri" style="ellipse;whiteSpace=wrap;html=1;" parent="1" vertex="1">
          <mxGeometry x="270" y="30" width="70" height="50" as="geometry" />
        </mxCell>
        <mxCell id="v3hVi9f_t8TOyD8l7h1l-9" value="presensi" style="ellipse;whiteSpace=wrap;html=1;" parent="1" vertex="1">
          <mxGeometry x="290" y="120" width="70" height="50" as="geometry" />
        </mxCell>
        <mxCell id="v3hVi9f_t8TOyD8l7h1l-10" value="jawaban_tryout" style="ellipse;whiteSpace=wrap;html=1;" parent="1" vertex="1">
          <mxGeometry x="45" y="190" width="100" height="70" as="geometry" />
        </mxCell>
        <mxCell id="v3hVi9f_t8TOyD8l7h1l-11" value="Hasil_tryout" style="ellipse;whiteSpace=wrap;html=1;" parent="1" vertex="1">
          <mxGeometry x="220" y="200" width="90" height="60" as="geometry" />
        </mxCell>
        <mxCell id="v3hVi9f_t8TOyD8l7h1l-12" value="presensi" style="ellipse;whiteSpace=wrap;html=1;" parent="1" vertex="1">
          <mxGeometry x="40" y="120" width="70" height="50" as="geometry" />
        </mxCell>
        <mxCell id="v3hVi9f_t8TOyD8l7h1l-14" value="id_calon_siswa" style="ellipse;whiteSpace=wrap;html=1;" parent="1" vertex="1">
          <mxGeometry x="325" y="380" width="100" height="60" as="geometry" />
        </mxCell>
        <mxCell id="v3hVi9f_t8TOyD8l7h1l-15" value="data_diri" style="ellipse;whiteSpace=wrap;html=1;" parent="1" vertex="1">
          <mxGeometry x="280" y="470" width="70" height="40" as="geometry" />
        </mxCell>
        <mxCell id="v3hVi9f_t8TOyD8l7h1l-16" value="jjawabn_tes_aptitude" style="ellipse;whiteSpace=wrap;html=1;" parent="1" vertex="1">
          <mxGeometry x="280" y="535" width="130" height="70" as="geometry" />
        </mxCell>
        <mxCell id="v3hVi9f_t8TOyD8l7h1l-17" value="hasil_tes_aptitude" style="ellipse;whiteSpace=wrap;html=1;" parent="1" vertex="1">
          <mxGeometry x="480" y="390" width="120" height="60" as="geometry" />
        </mxCell>
        <mxCell id="v3hVi9f_t8TOyD8l7h1l-18" value="status_pendaftaran" style="ellipse;whiteSpace=wrap;html=1;" parent="1" vertex="1">
          <mxGeometry x="537.5" y="470" width="120" height="60" as="geometry" />
        </mxCell>
        <mxCell id="v3hVi9f_t8TOyD8l7h1l-19" value="nama" style="ellipse;whiteSpace=wrap;html=1;" parent="1" vertex="1">
          <mxGeometry x="470" y="550" width="70" height="40" as="geometry" />
        </mxCell>
        <mxCell id="v3hVi9f_t8TOyD8l7h1l-20" value="id_petugas" style="ellipse;whiteSpace=wrap;html=1;" parent="1" vertex="1">
          <mxGeometry x="10" y="720" width="100" height="60" as="geometry" />
        </mxCell>
        <mxCell id="v3hVi9f_t8TOyD8l7h1l-21" value="nama" style="ellipse;whiteSpace=wrap;html=1;" parent="1" vertex="1">
          <mxGeometry x="140" y="810" width="70" height="40" as="geometry" />
        </mxCell>
        <mxCell id="v3hVi9f_t8TOyD8l7h1l-22" value="userpass_petugas&amp;nbsp;" style="ellipse;whiteSpace=wrap;html=1;" parent="1" vertex="1">
          <mxGeometry x="240" y="720" width="120" height="60" as="geometry" />
        </mxCell>
        <mxCell id="v3hVi9f_t8TOyD8l7h1l-32" value="id_manajer" style="ellipse;whiteSpace=wrap;html=1;" parent="1" vertex="1">
          <mxGeometry x="780" y="125" width="85" height="50" as="geometry" />
        </mxCell>
        <mxCell id="v3hVi9f_t8TOyD8l7h1l-33" value="nama" style="ellipse;whiteSpace=wrap;html=1;" parent="1" vertex="1">
          <mxGeometry x="680" y="50" width="70" height="40" as="geometry" />
        </mxCell>
        <mxCell id="v3hVi9f_t8TOyD8l7h1l-34" value="userpass_manajer" style="ellipse;whiteSpace=wrap;html=1;" parent="1" vertex="1">
          <mxGeometry x="657.5" y="200" width="115" height="70" as="geometry" />
        </mxCell>
        <mxCell id="v3hVi9f_t8TOyD8l7h1l-35" value="id_pembayaran" style="ellipse;whiteSpace=wrap;html=1;" parent="1" vertex="1">
          <mxGeometry x="730" y="780" width="95" height="50" as="geometry" />
        </mxCell>
        <mxCell id="v3hVi9f_t8TOyD8l7h1l-36" value="id_siswa" style="ellipse;whiteSpace=wrap;html=1;" parent="1" vertex="1">
          <mxGeometry x="617.5" y="680" width="95" height="50" as="geometry" />
        </mxCell>
        <mxCell id="v3hVi9f_t8TOyD8l7h1l-37" style="edgeStyle=orthogonalEdgeStyle;rounded=0;orthogonalLoop=1;jettySize=auto;html=1;exitX=0.5;exitY=1;exitDx=0;exitDy=0;" parent="1" source="v3hVi9f_t8TOyD8l7h1l-36" target="v3hVi9f_t8TOyD8l7h1l-36" edge="1">
          <mxGeometry relative="1" as="geometry" />
        </mxCell>
        <mxCell id="v3hVi9f_t8TOyD8l7h1l-38" value="rincian_tagihan" style="ellipse;whiteSpace=wrap;html=1;" parent="1" vertex="1">
          <mxGeometry x="480" y="775" width="95" height="50" as="geometry" />
        </mxCell>
        <mxCell id="v3hVi9f_t8TOyD8l7h1l-39" value="konfirmasi_pembayaran" style="ellipse;whiteSpace=wrap;html=1;" parent="1" vertex="1">
          <mxGeometry x="680" y="870" width="135" height="80" as="geometry" />
        </mxCell>
        <mxCell id="v3hVi9f_t8TOyD8l7h1l-40" value="konfirmasi_pembayaran" style="ellipse;whiteSpace=wrap;html=1;" parent="1" vertex="1">
          <mxGeometry x="497.5" y="870" width="160" height="90" as="geometry" />
        </mxCell>
        <mxCell id="v3hVi9f_t8TOyD8l7h1l-44" value="" style="edgeStyle=none;orthogonalLoop=1;jettySize=auto;html=1;rounded=0;exitX=0.75;exitY=0;exitDx=0;exitDy=0;entryX=0;entryY=1;entryDx=0;entryDy=0;" parent="1" source="v3hVi9f_t8TOyD8l7h1l-2" target="v3hVi9f_t8TOyD8l7h1l-17" edge="1">
          <mxGeometry width="100" relative="1" as="geometry">
            <mxPoint x="430" y="450" as="sourcePoint" />
            <mxPoint x="530" y="450" as="targetPoint" />
            <Array as="points" />
          </mxGeometry>
        </mxCell>
        <mxCell id="v3hVi9f_t8TOyD8l7h1l-49" value="" style="edgeStyle=none;orthogonalLoop=1;jettySize=auto;html=1;rounded=0;entryX=0;entryY=0;entryDx=0;entryDy=0;" parent="1" target="v3hVi9f_t8TOyD8l7h1l-19" edge="1">
          <mxGeometry width="100" relative="1" as="geometry">
            <mxPoint x="450" y="530" as="sourcePoint" />
            <mxPoint x="550" y="530" as="targetPoint" />
            <Array as="points" />
          </mxGeometry>
        </mxCell>
        <mxCell id="v3hVi9f_t8TOyD8l7h1l-50" value="" style="edgeStyle=none;orthogonalLoop=1;jettySize=auto;html=1;rounded=0;" parent="1" target="v3hVi9f_t8TOyD8l7h1l-16" edge="1">
          <mxGeometry width="100" relative="1" as="geometry">
            <mxPoint x="410" y="530" as="sourcePoint" />
            <mxPoint x="460" y="550" as="targetPoint" />
            <Array as="points">
              <mxPoint x="410" y="530" />
            </Array>
          </mxGeometry>
        </mxCell>
        <mxCell id="v3hVi9f_t8TOyD8l7h1l-55" value="" style="edgeStyle=none;orthogonalLoop=1;jettySize=auto;html=1;rounded=0;entryX=0.874;entryY=0.783;entryDx=0;entryDy=0;entryPerimeter=0;exitX=0.25;exitY=0;exitDx=0;exitDy=0;" parent="1" source="v3hVi9f_t8TOyD8l7h1l-2" target="v3hVi9f_t8TOyD8l7h1l-14" edge="1">
          <mxGeometry width="100" relative="1" as="geometry">
            <mxPoint x="350" y="450" as="sourcePoint" />
            <mxPoint x="450" y="450" as="targetPoint" />
            <Array as="points" />
          </mxGeometry>
        </mxCell>
        <mxCell id="v3hVi9f_t8TOyD8l7h1l-62" value="" style="edgeStyle=none;orthogonalLoop=1;jettySize=auto;html=1;rounded=0;exitX=0.75;exitY=1;exitDx=0;exitDy=0;entryX=0.5;entryY=0;entryDx=0;entryDy=0;" parent="1" source="v3hVi9f_t8TOyD8l7h1l-5" target="v3hVi9f_t8TOyD8l7h1l-39" edge="1">
          <mxGeometry width="100" relative="1" as="geometry">
            <mxPoint x="660" y="850" as="sourcePoint" />
            <mxPoint x="760" y="850" as="targetPoint" />
            <Array as="points" />
          </mxGeometry>
        </mxCell>
        <mxCell id="v3hVi9f_t8TOyD8l7h1l-71" value="" style="edgeStyle=none;orthogonalLoop=1;jettySize=auto;html=1;rounded=0;entryX=1;entryY=0;entryDx=0;entryDy=0;exitX=0.25;exitY=1;exitDx=0;exitDy=0;" parent="1" source="v3hVi9f_t8TOyD8l7h1l-1" target="v3hVi9f_t8TOyD8l7h1l-10" edge="1">
          <mxGeometry width="100" relative="1" as="geometry">
            <mxPoint x="150" y="175" as="sourcePoint" />
            <mxPoint x="250" y="175" as="targetPoint" />
            <Array as="points">
              <mxPoint x="150" y="190" />
            </Array>
          </mxGeometry>
        </mxCell>
        <mxCell id="v3hVi9f_t8TOyD8l7h1l-72" value="" style="edgeStyle=none;orthogonalLoop=1;jettySize=auto;html=1;rounded=0;entryX=0.714;entryY=1;entryDx=0;entryDy=0;entryPerimeter=0;exitX=0.109;exitY=0.057;exitDx=0;exitDy=0;exitPerimeter=0;" parent="1" source="v3hVi9f_t8TOyD8l7h1l-1" target="v3hVi9f_t8TOyD8l7h1l-6" edge="1">
          <mxGeometry width="100" relative="1" as="geometry">
            <mxPoint x="160" y="110" as="sourcePoint" />
            <mxPoint x="190" y="90" as="targetPoint" />
            <Array as="points" />
          </mxGeometry>
        </mxCell>
        <mxCell id="v3hVi9f_t8TOyD8l7h1l-73" value="" style="edgeStyle=none;orthogonalLoop=1;jettySize=auto;html=1;rounded=0;exitX=1;exitY=0;exitDx=0;exitDy=0;entryX=0.37;entryY=1.002;entryDx=0;entryDy=0;entryPerimeter=0;" parent="1" source="v3hVi9f_t8TOyD8l7h1l-1" target="v3hVi9f_t8TOyD8l7h1l-8" edge="1">
          <mxGeometry width="100" relative="1" as="geometry">
            <mxPoint x="210" y="100" as="sourcePoint" />
            <mxPoint x="310" y="100" as="targetPoint" />
            <Array as="points" />
          </mxGeometry>
        </mxCell>
        <mxCell id="v3hVi9f_t8TOyD8l7h1l-74" value="" style="edgeStyle=none;orthogonalLoop=1;jettySize=auto;html=1;rounded=0;entryX=0.368;entryY=0.011;entryDx=0;entryDy=0;exitX=0.25;exitY=1;exitDx=0;exitDy=0;entryPerimeter=0;" parent="1" target="v3hVi9f_t8TOyD8l7h1l-11" edge="1">
          <mxGeometry width="100" relative="1" as="geometry">
            <mxPoint x="230" y="175" as="sourcePoint" />
            <mxPoint x="187" y="200" as="targetPoint" />
            <Array as="points" />
          </mxGeometry>
        </mxCell>
        <mxCell id="v3hVi9f_t8TOyD8l7h1l-83" value="" style="edgeStyle=none;orthogonalLoop=1;jettySize=auto;html=1;rounded=0;" parent="1" source="v3hVi9f_t8TOyD8l7h1l-5" target="v3hVi9f_t8TOyD8l7h1l-40" edge="1">
          <mxGeometry width="100" relative="1" as="geometry">
            <mxPoint x="550" y="850" as="sourcePoint" />
            <mxPoint x="650" y="850" as="targetPoint" />
            <Array as="points" />
          </mxGeometry>
        </mxCell>
        <mxCell id="v3hVi9f_t8TOyD8l7h1l-98" value="" style="edgeStyle=orthogonalEdgeStyle;rounded=0;orthogonalLoop=1;jettySize=auto;html=1;" parent="1" source="v3hVi9f_t8TOyD8l7h1l-84" target="v3hVi9f_t8TOyD8l7h1l-89" edge="1">
          <mxGeometry relative="1" as="geometry" />
        </mxCell>
        <mxCell id="v3hVi9f_t8TOyD8l7h1l-99" value="" style="edgeStyle=orthogonalEdgeStyle;rounded=0;orthogonalLoop=1;jettySize=auto;html=1;" parent="1" source="v3hVi9f_t8TOyD8l7h1l-84" target="v3hVi9f_t8TOyD8l7h1l-87" edge="1">
          <mxGeometry relative="1" as="geometry" />
        </mxCell>
        <mxCell id="v3hVi9f_t8TOyD8l7h1l-101" style="edgeStyle=orthogonalEdgeStyle;rounded=0;orthogonalLoop=1;jettySize=auto;html=1;exitX=1;exitY=0;exitDx=0;exitDy=0;" parent="1" source="v3hVi9f_t8TOyD8l7h1l-84" target="v3hVi9f_t8TOyD8l7h1l-88" edge="1">
          <mxGeometry relative="1" as="geometry" />
        </mxCell>
        <mxCell id="v3hVi9f_t8TOyD8l7h1l-84" value="Presensi" style="rounded=0;whiteSpace=wrap;html=1;" parent="1" vertex="1">
          <mxGeometry x="1185" y="205" width="90" height="50" as="geometry" />
        </mxCell>
        <mxCell id="v3hVi9f_t8TOyD8l7h1l-102" style="edgeStyle=orthogonalEdgeStyle;rounded=0;orthogonalLoop=1;jettySize=auto;html=1;exitX=0;exitY=0;exitDx=0;exitDy=0;" parent="1" source="v3hVi9f_t8TOyD8l7h1l-85" target="v3hVi9f_t8TOyD8l7h1l-93" edge="1">
          <mxGeometry relative="1" as="geometry" />
        </mxCell>
        <mxCell id="v3hVi9f_t8TOyD8l7h1l-106" value="" style="edgeStyle=orthogonalEdgeStyle;rounded=0;orthogonalLoop=1;jettySize=auto;html=1;" parent="1" source="v3hVi9f_t8TOyD8l7h1l-85" target="v3hVi9f_t8TOyD8l7h1l-91" edge="1">
          <mxGeometry relative="1" as="geometry" />
        </mxCell>
        <mxCell id="v3hVi9f_t8TOyD8l7h1l-108" style="edgeStyle=orthogonalEdgeStyle;rounded=0;orthogonalLoop=1;jettySize=auto;html=1;exitX=0;exitY=1;exitDx=0;exitDy=0;" parent="1" source="v3hVi9f_t8TOyD8l7h1l-85" target="v3hVi9f_t8TOyD8l7h1l-94" edge="1">
          <mxGeometry relative="1" as="geometry" />
        </mxCell>
        <mxCell id="v3hVi9f_t8TOyD8l7h1l-85" value="Try Out" style="rounded=0;whiteSpace=wrap;html=1;" parent="1" vertex="1">
          <mxGeometry x="1230" y="470" width="90" height="60" as="geometry" />
        </mxCell>
        <mxCell id="v3hVi9f_t8TOyD8l7h1l-86" value="id_siswa" style="ellipse;whiteSpace=wrap;html=1;" parent="1" vertex="1">
          <mxGeometry x="1100" y="30" width="95" height="50" as="geometry" />
        </mxCell>
        <mxCell id="v3hVi9f_t8TOyD8l7h1l-87" value="id_presensi" style="ellipse;whiteSpace=wrap;html=1;" parent="1" vertex="1">
          <mxGeometry x="1210" y="20" width="95" height="50" as="geometry" />
        </mxCell>
        <mxCell id="v3hVi9f_t8TOyD8l7h1l-88" value="tanggal_presensi" style="ellipse;whiteSpace=wrap;html=1;" parent="1" vertex="1">
          <mxGeometry x="1330" y="20" width="100" height="60" as="geometry" />
        </mxCell>
        <mxCell id="v3hVi9f_t8TOyD8l7h1l-89" value="status_kehadiran" style="ellipse;whiteSpace=wrap;html=1;" parent="1" vertex="1">
          <mxGeometry x="1430" y="120" width="100" height="60" as="geometry" />
        </mxCell>
        <mxCell id="v3hVi9f_t8TOyD8l7h1l-90" value="id_tryout" style="ellipse;whiteSpace=wrap;html=1;" parent="1" vertex="1">
          <mxGeometry x="1370" y="340" width="95" height="50" as="geometry" />
        </mxCell>
        <mxCell id="v3hVi9f_t8TOyD8l7h1l-91" value="id_siswa" style="ellipse;whiteSpace=wrap;html=1;" parent="1" vertex="1">
          <mxGeometry x="1355" y="445" width="95" height="50" as="geometry" />
        </mxCell>
        <mxCell id="v3hVi9f_t8TOyD8l7h1l-92" value="id_petugas" style="ellipse;whiteSpace=wrap;html=1;" parent="1" vertex="1">
          <mxGeometry x="1430" y="590" width="95" height="50" as="geometry" />
        </mxCell>
        <mxCell id="v3hVi9f_t8TOyD8l7h1l-93" value="hasil_tryout" style="ellipse;whiteSpace=wrap;html=1;" parent="1" vertex="1">
          <mxGeometry x="1120" y="380" width="95" height="50" as="geometry" />
        </mxCell>
        <mxCell id="v3hVi9f_t8TOyD8l7h1l-94" value="tanggal_tryout" style="ellipse;whiteSpace=wrap;html=1;" parent="1" vertex="1">
          <mxGeometry x="1100" y="590" width="95" height="50" as="geometry" />
        </mxCell>
        <mxCell id="v3hVi9f_t8TOyD8l7h1l-96" value="" style="edgeStyle=orthogonalEdgeStyle;rounded=0;orthogonalLoop=1;jettySize=auto;html=1;exitX=0;exitY=0;exitDx=0;exitDy=0;entryX=0.731;entryY=0.961;entryDx=0;entryDy=0;entryPerimeter=0;" parent="1" source="v3hVi9f_t8TOyD8l7h1l-84" target="v3hVi9f_t8TOyD8l7h1l-86" edge="1">
          <mxGeometry relative="1" as="geometry">
            <mxPoint x="725" y="130" as="sourcePoint" />
            <mxPoint x="725" y="100" as="targetPoint" />
          </mxGeometry>
        </mxCell>
        <mxCell id="v3hVi9f_t8TOyD8l7h1l-103" style="edgeStyle=orthogonalEdgeStyle;rounded=0;orthogonalLoop=1;jettySize=auto;html=1;exitX=1;exitY=1;exitDx=0;exitDy=0;entryX=0.076;entryY=0.722;entryDx=0;entryDy=0;entryPerimeter=0;" parent="1" source="v3hVi9f_t8TOyD8l7h1l-85" target="v3hVi9f_t8TOyD8l7h1l-92" edge="1">
          <mxGeometry relative="1" as="geometry" />
        </mxCell>
        <mxCell id="v3hVi9f_t8TOyD8l7h1l-107" style="edgeStyle=orthogonalEdgeStyle;rounded=0;orthogonalLoop=1;jettySize=auto;html=1;exitX=1;exitY=0;exitDx=0;exitDy=0;entryX=0;entryY=0.5;entryDx=0;entryDy=0;" parent="1" source="v3hVi9f_t8TOyD8l7h1l-85" target="v3hVi9f_t8TOyD8l7h1l-90" edge="1">
          <mxGeometry relative="1" as="geometry">
            <mxPoint x="1360" y="340" as="targetPoint" />
          </mxGeometry>
        </mxCell>
        <mxCell id="A28waqEyvfEKwW47pMf7-1" value="" style="rhombus;whiteSpace=wrap;html=1;" vertex="1" parent="1">
          <mxGeometry x="840" y="310" width="80" height="80" as="geometry" />
        </mxCell>
      </root>
    </mxGraphModel>
  </diagram>
</mxfile>
